<svg xmlns="http://www.w3.org/2000/svg" data-name="Layer 1" viewBox="0 0 168 168"><path fill="#2d4356" d="M36 38a2 2 0 0 0 2-2V24H50a2 2 0 0 0 0-4H36a2 2 0 0 0-2 2V36A2 2 0 0 0 36 38zM118 24h12V36a2 2 0 0 0 4 0V22a2 2 0 0 0-2-2H118a2 2 0 0 0 0 4zM36 95H50a2 2 0 1 0 0-4H38V79a2 2 0 0 0-4 0V93A2 2 0 0 0 36 95zM118 95h14a2 2 0 0 0 2-2V79a2 2 0 0 0-4 0V91H118a2 2 0 0 0 0 4zM111 15a3 3 0 1 0-3-3A3 3 0 0 0 111 15zm0-4.5a1.5 1.5 0 1 1-1.5 1.5A1.5 1.5 0 0 1 111 10.5zM160 69a2 2 0 1 0 2 2A2 2 0 0 0 160 69zm0 3a1 1 0 1 1 1-1A1 1 0 0 1 160 72zM81 7a2 2 0 1 0-2-2A2 2 0 0 0 81 7zm0-3a1 1 0 1 1-1 1A1 1 0 0 1 81 4zM24 38a2 2 0 1 0-2-2A2 2 0 0 0 24 38zm0-3a1 1 0 1 1-1 1A1 1 0 0 1 24 35z"/><circle cx="2" cy="146" r="2" fill="#2d4356"/><path fill="#2d4356" d="M11 144H8a2 2 0 0 0 0 4h3a2 2 0 0 0 0-4zM160 144h-3a2 2 0 0 0 0 4h3a2 2 0 0 0 0-4z"/><circle cx="166" cy="146" r="2" fill="#2d4356"/><path fill="#2d4356" d="M150.721,144h-13.07a8.457,8.457,0,0,0,1.443-3.962,168.184,168.184,0,0,0,.894-18.023c-1.336-20.978-28.713-25.386-28.713-25.386A13.839,13.839,0,0,1,100.488,87.4a54.4,54.4,0,0,0,11.285-21.521A34.067,34.067,0,0,0,113,56.911a29,29,0,0,0-58,0A50.225,50.225,0,0,0,66.688,88.125c.149.17.305.331.458.5a13.631,13.631,0,0,1-10.28,8.009s-27.378,4.407-28.713,25.386c0,0-.65,4.965.733,18.041a8.479,8.479,0,0,0,1.5,3.943H17.279a2.017,2.017,0,1,0,0,4H150.721a2.017,2.017,0,1,0,0-4ZM59,56.911a24.666,24.666,0,0,1,7.638-17.922A25.018,25.018,0,0,1,109,56.911a29.949,29.949,0,0,1-1.085,7.911c-2.678,9.765-7.844,18.349-14.173,23.552A15.776,15.776,0,0,1,83.609,92,18.608,18.608,0,0,1,69.7,85.489,46.508,46.508,0,0,1,59,56.911ZM70.215,91.4A22.346,22.346,0,0,0,83.609,96a19.766,19.766,0,0,0,12.674-4.537c.393-.323.775-.661,1.155-1a19.158,19.158,0,0,0,4.29,5.808L85.1,113.457A1.632,1.632,0,0,1,83.91,114H83.9a1.614,1.614,0,0,1-1.163-.505L66.711,96A18.961,18.961,0,0,0,70.215,91.4Zm64.9,48.27A5.016,5.016,0,0,1,130.319,144h-92.5a5.188,5.188,0,0,1-4.959-4.364c-1.293-12.22-.748-17.077-.745-17.1l.017-.132.008-.133c1.114-17.5,25.122-21.652,25.357-21.69l.036-.006.036-.006A18,18,0,0,0,63.5,98.415l16.315,17.808a5.682,5.682,0,0,0,2.218,1.449A1.966,1.966,0,0,0,82,118v12a2,2,0,0,0,4,0V118a2.018,2.018,0,0,0-.04-.4A5.6,5.6,0,0,0,88,116.211l17.014-17.587a18.1,18.1,0,0,0,5.553,1.943l.036.006.029,0c.242.04,24.179,4.175,25.358,21.613A170.855,170.855,0,0,1,135.111,139.673Z"/><circle cx="36" cy="58" r="2" fill="#0bceb2"/><circle cx="132" cy="58" r="2" fill="#0bceb2"/><circle cx="84" cy="138" r="2" fill="#0bceb2"/><polygon fill="#0bceb2" points="4.583 56.011 6.07 54.056 5.131 53.524 4.177 55.714 4.145 55.714 3.175 53.539 2.22 54.087 3.691 55.996 3.691 56.027 1.391 55.73 1.391 56.794 3.707 56.497 3.707 56.528 2.22 58.436 3.112 59 4.13 56.794 4.16 56.794 5.099 58.984 6.085 58.421 4.583 56.543 4.583 56.512 6.945 56.794 6.945 55.73 4.583 56.042 4.583 56.011"/><polygon fill="#0bceb2" points="51.777 11.067 50.92 12.166 51.434 12.49 52.02 11.22 52.038 11.22 52.578 12.481 53.146 12.157 52.281 11.075 52.281 11.057 53.641 11.22 53.641 10.607 52.281 10.787 52.281 10.769 53.137 9.643 52.597 9.337 52.047 10.598 52.029 10.598 51.471 9.345 50.92 9.661 51.768 10.76 51.768 10.778 50.443 10.607 50.443 11.22 51.777 11.049 51.777 11.067"/><polygon fill="#0bceb2" points="8.683 6.946 10.142 5.028 9.221 4.506 8.285 6.654 8.253 6.654 7.302 4.521 6.365 5.059 7.808 6.931 7.808 6.962 5.552 6.67 5.552 7.713 7.823 7.422 7.823 7.453 6.365 9.325 7.24 9.878 8.238 7.713 8.268 7.713 9.189 9.862 10.156 9.31 8.683 7.468 8.683 7.437 11 7.713 11 6.67 8.683 6.977 8.683 6.946"/><polygon fill="#0bceb2" points="160.442 23.248 160.442 22.348 158.443 22.612 158.443 22.586 159.701 20.931 158.907 20.481 158.099 22.334 158.073 22.334 157.252 20.494 156.444 20.958 157.689 22.573 157.689 22.599 155.742 22.348 155.742 23.248 157.702 22.996 157.702 23.023 156.444 24.638 157.198 25.115 158.06 23.248 158.085 23.248 158.88 25.101 159.714 24.625 158.443 23.036 158.443 23.009 160.442 23.248"/><path fill="#0bceb2" d="M118.154 153h-8.308a2.006 2.006 0 0 0 0 4h8.308a2.006 2.006 0 0 0 0-4zM58.154 153H49.846a2.006 2.006 0 0 0 0 4h8.308a2.006 2.006 0 0 0 0-4zM104 153H64a2 2 0 0 0 0 4H79.94v2H72a2 2 0 0 0 0 4H97a2 2 0 0 0 0-4H88.06v-2H104a2 2 0 0 0 0-4z"/></svg>